<svg xmlns="http://www.w3.org/2000/svg" viewBox="0 0 1200 630" width="1200" height="630">
  <defs>
    <linearGradient id="bg" x1="0%" y1="0%" x2="100%" y2="100%">
      <stop offset="0%" stop-color="#0284c7"/>
      <stop offset="100%" stop-color="#38bdf8"/>
    </linearGradient>
  </defs>
  <rect width="1200" height="630" fill="url(#bg)"/>

  <!-- ② 일러스트: 주제별 도형 (중앙 상단) -->
  <g transform="translate(600, 220)">
      <rect x="-60" y="-60" width="120" height="120" rx="16" fill="none" stroke="#ffffff" stroke-width="6" />
      <line x1="-90" y1="-30" x2="-60" y2="-30" stroke="#ffffff" stroke-width="6" stroke-linecap="round" />
      <line x1="-90" y1="30" x2="-60" y2="30" stroke="#ffffff" stroke-width="6" stroke-linecap="round" />
      <line x1="60" y1="-30" x2="90" y2="-30" stroke="#ffffff" stroke-width="6" stroke-linecap="round" />
      <line x1="60" y1="30" x2="90" y2="30" stroke="#ffffff" stroke-width="6" stroke-linecap="round" />
      <line x1="-30" y1="-90" x2="-30" y2="-60" stroke="#ffffff" stroke-width="6" stroke-linecap="round" />
      <line x1="30" y1="-90" x2="30" y2="-60" stroke="#ffffff" stroke-width="6" stroke-linecap="round" />
      <line x1="-30" y1="60" x2="-30" y2="90" stroke="#ffffff" stroke-width="6" stroke-linecap="round" />
      <line x1="30" y1="60" x2="30" y2="90" stroke="#ffffff" stroke-width="6" stroke-linecap="round" />
      <circle cx="0" cy="0" r="30" fill="none" stroke="#ffffff" stroke-width="4" opacity="0.5" />
      <circle cx="0" cy="0" r="14" fill="#ffffff" />
      <circle cx="-90" cy="-30" r="6" fill="#ffffff" />
      <circle cx="-90" cy="30" r="6" fill="#ffffff" />
      <circle cx="90" cy="-30" r="6" fill="#ffffff" />
      <circle cx="90" cy="30" r="6" fill="#ffffff" />
      <circle cx="-30" cy="-90" r="6" fill="#ffffff" />
      <circle cx="30" cy="-90" r="6" fill="#ffffff" />
      <circle cx="-30" cy="90" r="6" fill="#ffffff" />
      <circle cx="30" cy="90" r="6" fill="#ffffff" />
    </g>

  <!-- ③ 텍스트 -->
  <text x="600" y="490" font-size="56" font-weight="900" fill="#ffffff" text-anchor="middle"
        font-family="Pretendard,system-ui,-apple-system,sans-serif" letter-spacing="-0.02em">AI 대본 도구 비교</text>
  <text x="600" y="555" font-size="28" font-weight="400" fill="#ffffff" opacity="0.8" text-anchor="middle"
        font-family="Pretendard,system-ui,-apple-system,sans-serif">챗GPT 클로드 제미나이 리얼 비교</text>
</svg>