<svg xmlns="http://www.w3.org/2000/svg" viewBox="0 0 1200 630" width="1200" height="630">
  <defs>
    <linearGradient id="bg" x1="0%" y1="0%" x2="100%" y2="100%">
      <stop offset="0%" stop-color="#0284c7"/>
      <stop offset="100%" stop-color="#38bdf8"/>
    </linearGradient>
  </defs>
  <rect width="1200" height="630" fill="url(#bg)"/>

  <!-- ② 일러스트: 주제별 도형 (중앙 상단) -->
  <g transform="translate(600, 220)">
      <path d="M -70,-90 h 140 a 16 16 0 0 1 16 16 v 140 a 16 16 0 0 1 -16 16 h -140 a 16 16 0 0 1 -16 -16 v -140 a 16 16 0 0 1 16 -16 z" fill="none" stroke="#ffffff" stroke-width="6" />
      <path d="M -30,-90 v -10 a 6 6 0 0 1 6 -6 h 48 a 6 6 0 0 1 6 6 v 10 Z" fill="#ffffff" opacity="0.6" />
      <rect x="-45" y="-50" width="24" height="24" rx="4" fill="none" stroke="#ffffff" stroke-width="4" />
      <polyline points="-42,-38 -37,-33 -27,-45" fill="none" stroke="#ffffff" stroke-width="4" stroke-linecap="round" stroke-linejoin="round" />
      <line x1="-10" y1="-38" x2="45" y2="-38" stroke="#ffffff" stroke-width="5" stroke-linecap="round" opacity="0.9" />
      <rect x="-45" y="-10" width="24" height="24" rx="4" fill="none" stroke="#ffffff" stroke-width="4" />
      <polyline points="-42,2 -37,7 -27,-5" fill="none" stroke="#ffffff" stroke-width="4" stroke-linecap="round" stroke-linejoin="round" />
      <line x1="-10" y1="2" x2="30" y2="2" stroke="#ffffff" stroke-width="5" stroke-linecap="round" opacity="0.9" />
      <rect x="-45" y="30" width="24" height="24" rx="4" fill="none" stroke="#ffffff" stroke-width="4" />
      <polyline points="-42,42 -37,47 -27,35" fill="none" stroke="#ffffff" stroke-width="4" stroke-linecap="round" stroke-linejoin="round" opacity="0.5" />
      <line x1="-10" y1="42" x2="20" y2="42" stroke="#ffffff" stroke-width="5" stroke-linecap="round" opacity="0.9" />
    </g>

  <!-- ③ 텍스트 -->
  <text x="600" y="490" font-size="56" font-weight="900" fill="#ffffff" text-anchor="middle"
        font-family="Pretendard,system-ui,-apple-system,sans-serif" letter-spacing="-0.02em">AI 구독료 가이드</text>
  <text x="600" y="555" font-size="28" font-weight="400" fill="#ffffff" opacity="0.8" text-anchor="middle"
        font-family="Pretendard,system-ui,-apple-system,sans-serif">진짜 요정 필수 도구와 과소비 구별법</text>
</svg>